<svg width="140" height="123" viewBox="0 0 140 123" fill="none" xmlns="http://www.w3.org/2000/svg">
<path d="M85.0291 69.5242L80.8449 74.548C79.5869 76.0599 78.0276 77.2538 76.287 78.0711C74.5463 78.8828 72.6328 79.3236 70.6606 79.3236C70.1446 79.3236 69.662 79.5634 69.3496 79.9735L59.0454 93.4716C58.2113 94.5567 58.9924 96.1272 60.3564 96.1272H77.1879C81.9858 96.1272 86.5326 93.9961 89.5954 90.3056L106.887 69.5242L109.141 66.8129H87.2802L85.0319 69.5242H85.0291Z" fill="black"/>
<path d="M139.125 30.7565L125.362 47.3007L123.113 50.0121H101.252L103.512 47.3007L107.367 42.6591C107.788 42.1514 107.428 41.3815 106.767 41.3815H67.3857C66.8837 41.3815 66.4039 41.6047 66.0831 41.9924L35.6223 78.6207L35.0309 79.3264H35.0755C30.9499 84.6292 25.7197 88.8301 19.8368 91.7004C13.9566 94.5791 7.42929 96.1301 0.712294 96.1301C0.109773 96.1301 -0.219382 95.4271 0.165562 94.9641L51.4664 33.2949L51.5472 33.1917L78.2451 0.853572C78.6914 0.312418 79.3581 0 80.0582 0H95.2579C97.0795 0 98.0697 2.12556 96.9009 3.52029L79.2577 24.5779H136.224C139.418 24.5779 141.161 28.3018 139.125 30.7565Z" fill="black"/>
<path d="M138.333 56.1767C133.15 62.8602 125.167 66.7738 116.709 66.7738H74.4768C73.2578 66.7738 72.1029 67.3429 71.3665 68.3136L62.987 79.2845L50.1667 96.0882L42.518 106.105C34.6211 116.454 22.434 122.627 9.45186 122.898C9.08923 122.909 8.87723 122.485 9.10039 122.192L29.0254 96.0854L41.8513 79.2817L42.3562 78.6318L63.0037 51.5769C63.7792 50.5643 64.9815 49.9674 66.2562 49.9674H122.388L135.538 50.2547C138.542 50.3412 140.171 53.8001 138.336 56.1739L138.333 56.1767Z" fill="#FFD110"/>
</svg>
